<?xml version="1.0" encoding="UTF-8"?>
<!DOCTYPE svg PUBLIC "-//W3C//DTD SVG 1.1//EN" "http://www.w3.org/Graphics/SVG/1.1/DTD/svg11.dtd">
<svg version="1.1" xmlns="http://www.w3.org/2000/svg" xmlns:xlink="http://www.w3.org/1999/xlink" x="0" y="0" width="480" height="400" viewBox="0, 0, 480, 400">
  <g id="Background">
    <rect x="0" y="0" width="480" height="400" fill="#000000" fill-opacity="0"/>
  </g>
  <g id="Layer_1">
    <g>
      <path d="M15.5,15.5 L55.5,15.5 L55.5,55.5 L15.5,55.5 L15.5,15.5 z" fill="#9D9E9E"/>
      <path d="M15.5,15.5 L55.5,15.5 L55.5,55.5 L15.5,55.5 L15.5,15.5 z" fill-opacity="0" stroke="#294270" stroke-width="2"/>
    </g>
    <g>
      <path d="M55.5,15.5 L95.5,15.5 L95.5,55.5 L55.5,55.5 L55.5,15.5 z" fill="#9D9E9E"/>
      <path d="M55.5,15.5 L95.5,15.5 L95.5,55.5 L55.5,55.5 L55.5,15.5 z" fill-opacity="0" stroke="#294270" stroke-width="2"/>
    </g>
    <g>
      <path d="M95.5,15.5 L135.5,15.5 L135.5,55.5 L95.5,55.5 L95.5,15.5 z" fill="#9D9E9E"/>
      <path d="M95.5,15.5 L135.5,15.5 L135.5,55.5 L95.5,55.5 L95.5,15.5 z" fill-opacity="0" stroke="#294270" stroke-width="2"/>
    </g>
    <g>
      <path d="M135.5,15.5 L175.5,15.5 L175.5,55.5 L135.5,55.5 L135.5,15.5 z" fill="#FABA00"/>
      <path d="M135.5,15.5 L175.5,15.5 L175.5,55.5 L135.5,55.5 L135.5,15.5 z" fill-opacity="0" stroke="#294270" stroke-width="2"/>
    </g>
    <g>
      <path d="M175.5,15.5 L215.5,15.5 L215.5,55.5 L175.5,55.5 L175.5,15.5 z" fill="#8FC7ED"/>
      <path d="M175.5,15.5 L215.5,15.5 L215.5,55.5 L175.5,55.5 L175.5,15.5 z" fill-opacity="0" stroke="#294270" stroke-width="2"/>
    </g>
    <g>
      <path d="M215.5,15.5 L255.5,15.5 L255.5,55.5 L215.5,55.5 L215.5,15.5 z" fill="#8FC7ED"/>
      <path d="M215.5,15.5 L255.5,15.5 L255.5,55.5 L215.5,55.5 L215.5,15.5 z" fill-opacity="0" stroke="#294270" stroke-width="2"/>
    </g>
    <g>
      <path d="M255.5,15.5 L295.5,15.5 L295.5,55.5 L255.5,55.5 L255.5,15.5 z" fill="#8FC7ED"/>
      <path d="M255.5,15.5 L295.5,15.5 L295.5,55.5 L255.5,55.5 L255.5,15.5 z" fill-opacity="0" stroke="#294270" stroke-width="2"/>
    </g>
    <g>
      <path d="M295.5,15.5 L335.5,15.5 L335.5,55.5 L295.5,55.5 L295.5,15.5 z" fill="#8FC7ED"/>
      <path d="M295.5,15.5 L335.5,15.5 L335.5,55.5 L295.5,55.5 L295.5,15.5 z" fill-opacity="0" stroke="#294270" stroke-width="2"/>
    </g>
    <g>
      <path d="M335.5,15.5 L375.5,15.5 L375.5,55.5 L335.5,55.5 L335.5,15.5 z" fill="#8FC7ED"/>
      <path d="M335.5,15.5 L375.5,15.5 L375.5,55.5 L335.5,55.5 L335.5,15.5 z" fill-opacity="0" stroke="#294270" stroke-width="2"/>
    </g>
    <g>
      <path d="M15.5,55.5 L55.5,55.5 L55.5,95.5 L15.5,95.5 L15.5,55.5 z" fill="#9D9E9E"/>
      <path d="M15.5,55.5 L55.5,55.5 L55.5,95.5 L15.5,95.5 L15.5,55.5 z" fill-opacity="0" stroke="#294270" stroke-width="2"/>
    </g>
    <g>
      <path d="M55.5,55.5 L95.5,55.5 L95.5,95.5 L55.5,95.5 L55.5,55.5 z" fill="#FABA00"/>
      <path d="M55.5,55.5 L95.5,55.5 L95.5,95.5 L55.5,95.5 L55.5,55.5 z" fill-opacity="0" stroke="#294270" stroke-width="2"/>
    </g>
    <g>
      <path d="M95.5,55.5 L135.5,55.5 L135.5,95.5 L95.5,95.5 L95.5,55.5 z" fill="#FABA00"/>
      <path d="M95.5,55.5 L135.5,55.5 L135.5,95.5 L95.5,95.5 L95.5,55.5 z" fill-opacity="0" stroke="#294270" stroke-width="2"/>
    </g>
    <g>
      <path d="M135.5,55.5 L175.5,55.5 L175.5,95.5 L135.5,95.5 L135.5,55.5 z" fill="#FABA00"/>
      <path d="M135.5,55.5 L175.5,55.5 L175.5,95.5 L135.5,95.5 L135.5,55.5 z" fill-opacity="0" stroke="#294270" stroke-width="2"/>
    </g>
    <g>
      <path d="M175.5,55.5 L215.5,55.5 L215.5,95.5 L175.5,95.5 L175.5,55.5 z" fill="#F0801A"/>
      <path d="M175.5,55.5 L215.5,55.5 L215.5,95.5 L175.5,95.5 L175.5,55.5 z" fill-opacity="0" stroke="#294270" stroke-width="2"/>
    </g>
    <g>
      <path d="M215.5,55.5 L255.5,55.5 L255.5,95.5 L215.5,95.5 L215.5,55.5 z" fill="#F0801A"/>
      <path d="M215.5,55.5 L255.5,55.5 L255.5,95.5 L215.5,95.5 L215.5,55.5 z" fill-opacity="0" stroke="#294270" stroke-width="2"/>
    </g>
    <g>
      <path d="M255.5,55.5 L295.5,55.5 L295.5,95.5 L255.5,95.5 L255.5,55.5 z" fill="#F0801A"/>
      <path d="M255.5,55.5 L295.5,55.5 L295.5,95.5 L255.5,95.5 L255.5,55.5 z" fill-opacity="0" stroke="#294270" stroke-width="2"/>
    </g>
    <g>
      <path d="M295.5,55.5 L335.5,55.5 L335.5,95.5 L295.5,95.5 L295.5,55.5 z" fill="#F0801A"/>
      <path d="M295.5,55.5 L335.5,55.5 L335.5,95.5 L295.5,95.5 L295.5,55.5 z" fill-opacity="0" stroke="#294270" stroke-width="2"/>
    </g>
    <g>
      <path d="M335.5,55.5 L375.5,55.5 L375.5,95.5 L335.5,95.5 L335.5,55.5 z" fill="#8FC7ED"/>
      <path d="M335.5,55.5 L375.5,55.5 L375.5,95.5 L335.5,95.5 L335.5,55.5 z" fill-opacity="0" stroke="#294270" stroke-width="2"/>
    </g>
    <g>
      <path d="M15.5,95.5 L55.5,95.5 L55.5,135.5 L15.5,135.5 L15.5,95.5 z" fill="#9D9E9E"/>
      <path d="M15.5,95.5 L55.5,95.5 L55.5,135.5 L15.5,135.5 L15.5,95.5 z" fill-opacity="0" stroke="#294270" stroke-width="2"/>
    </g>
    <g>
      <path d="M55.5,95.5 L95.5,95.5 L95.5,135.5 L55.5,135.5 L55.5,95.5 z" fill="#FABA00"/>
      <path d="M55.5,95.5 L95.5,95.5 L95.5,135.5 L55.5,135.5 L55.5,95.5 z" fill-opacity="0" stroke="#294270" stroke-width="2"/>
    </g>
    <g>
      <path d="M95.5,95.5 L135.5,95.5 L135.5,135.5 L95.5,135.5 L95.5,95.5 z" fill="#FABA00"/>
      <path d="M95.5,95.5 L135.5,95.5 L135.5,135.5 L95.5,135.5 L95.5,95.5 z" fill-opacity="0" stroke="#294270" stroke-width="2"/>
    </g>
    <g>
      <path d="M135.5,95.5 L175.5,95.5 L175.5,135.5 L135.5,135.5 L135.5,95.5 z" fill="#F0801A"/>
      <path d="M135.5,95.5 L175.5,95.5 L175.5,135.5 L135.5,135.5 L135.5,95.5 z" fill-opacity="0" stroke="#294270" stroke-width="2"/>
    </g>
    <g>
      <path d="M175.5,95.5 L215.5,95.5 L215.5,135.5 L175.5,135.5 L175.5,95.5 z" fill="#F0801A"/>
      <path d="M175.5,95.5 L215.5,95.5 L215.5,135.5 L175.5,135.5 L175.5,95.5 z" fill-opacity="0" stroke="#294270" stroke-width="2"/>
    </g>
    <g>
      <path d="M215.5,95.5 L255.5,95.5 L255.5,135.5 L215.5,135.5 L215.5,95.5 z" fill="#9D9E9E"/>
      <path d="M215.5,95.5 L255.5,95.5 L255.5,135.5 L215.5,135.5 L215.5,95.5 z" fill-opacity="0" stroke="#294270" stroke-width="2"/>
    </g>
    <g>
      <path d="M255.5,95.5 L295.5,95.5 L295.5,135.5 L255.5,135.5 L255.5,95.5 z" fill="#FABA00"/>
      <path d="M255.5,95.5 L295.5,95.5 L295.5,135.5 L255.5,135.5 L255.5,95.5 z" fill-opacity="0" stroke="#294270" stroke-width="2"/>
    </g>
    <g>
      <path d="M295.5,95.5 L335.5,95.5 L335.5,135.5 L295.5,135.5 L295.5,95.5 z" fill="#F0801A"/>
      <path d="M295.5,95.5 L335.5,95.5 L335.5,135.5 L295.5,135.5 L295.5,95.5 z" fill-opacity="0" stroke="#294270" stroke-width="2"/>
    </g>
    <g>
      <path d="M335.5,95.5 L375.5,95.5 L375.5,135.5 L335.5,135.5 L335.5,95.5 z" fill="#8FC7ED"/>
      <path d="M335.5,95.5 L375.5,95.5 L375.5,135.5 L335.5,135.5 L335.5,95.5 z" fill-opacity="0" stroke="#294270" stroke-width="2"/>
    </g>
    <g>
      <path d="M15.5,135.5 L55.5,135.5 L55.5,175.5 L15.5,175.5 L15.5,135.5 z" fill="#FABA00"/>
      <path d="M15.5,135.5 L55.5,135.5 L55.5,175.5 L15.5,175.5 L15.5,135.5 z" fill-opacity="0" stroke="#294270" stroke-width="2"/>
    </g>
    <g>
      <path d="M55.5,135.5 L95.5,135.5 L95.5,175.5 L55.5,175.5 L55.5,135.5 z" fill="#FABA00"/>
      <path d="M55.5,135.5 L95.5,135.5 L95.5,175.5 L55.5,175.5 L55.5,135.5 z" fill-opacity="0" stroke="#294270" stroke-width="2"/>
    </g>
    <g>
      <path d="M95.5,135.5 L135.5,135.5 L135.5,175.5 L95.5,175.5 L95.5,135.5 z" fill="#FABA00"/>
      <path d="M95.5,135.5 L135.5,135.5 L135.5,175.5 L95.5,175.5 L95.5,135.5 z" fill-opacity="0" stroke="#294270" stroke-width="2"/>
    </g>
    <g>
      <path d="M135.5,135.5 L175.5,135.5 L175.5,175.5 L135.5,175.5 L135.5,135.5 z" fill="#F0801A"/>
      <path d="M135.5,135.5 L175.5,135.5 L175.5,175.5 L135.5,175.5 L135.5,135.5 z" fill-opacity="0" stroke="#294270" stroke-width="2"/>
    </g>
    <g>
      <path d="M175.5,135.5 L215.5,135.5 L215.5,175.5 L175.5,175.5 L175.5,135.5 z" fill="#8FC7ED"/>
      <path d="M175.5,135.5 L215.5,135.5 L215.5,175.5 L175.5,175.5 L175.5,135.5 z" fill-opacity="0" stroke="#294270" stroke-width="2"/>
    </g>
    <g>
      <path d="M215.5,135.5 L255.5,135.5 L255.5,175.5 L215.5,175.5 L215.5,135.5 z" fill="#9D9E9E"/>
      <path d="M215.5,135.5 L255.5,135.5 L255.5,175.5 L215.5,175.5 L215.5,135.5 z" fill-opacity="0" stroke="#294270" stroke-width="2"/>
    </g>
    <g>
      <path d="M255.5,135.5 L295.5,135.5 L295.5,175.5 L255.5,175.5 L255.5,135.5 z" fill="#FABA00"/>
      <path d="M255.5,135.5 L295.5,135.5 L295.5,175.5 L255.5,175.5 L255.5,135.5 z" fill-opacity="0" stroke="#294270" stroke-width="2"/>
    </g>
    <g>
      <path d="M295.5,135.5 L335.5,135.5 L335.5,175.5 L295.5,175.5 L295.5,135.5 z" fill="#FABA00"/>
      <path d="M295.5,135.5 L335.5,135.5 L335.5,175.5 L295.5,175.5 L295.5,135.5 z" fill-opacity="0" stroke="#294270" stroke-width="2"/>
    </g>
    <g>
      <path d="M335.5,135.5 L375.5,135.5 L375.5,175.5 L335.5,175.5 L335.5,135.5 z" fill="#F0801A"/>
      <path d="M335.5,135.5 L375.5,135.5 L375.5,175.5 L335.5,175.5 L335.5,135.5 z" fill-opacity="0" stroke="#294270" stroke-width="2"/>
    </g>
    <g>
      <path d="M15.5,175.5 L55.5,175.5 L55.5,215.5 L15.5,215.5 L15.5,175.5 z" fill="#FABA00"/>
      <path d="M15.5,175.5 L55.5,175.5 L55.5,215.5 L15.5,215.5 L15.5,175.5 z" fill-opacity="0" stroke="#294270" stroke-width="2"/>
    </g>
    <g>
      <path d="M55.5,175.5 L95.5,175.5 L95.5,215.5 L55.5,215.5 L55.5,175.5 z" fill="#FABA00"/>
      <path d="M55.5,175.5 L95.5,175.5 L95.5,215.5 L55.5,215.5 L55.5,175.5 z" fill-opacity="0" stroke="#294270" stroke-width="2"/>
    </g>
    <g>
      <path d="M95.5,175.5 L135.5,175.5 L135.5,215.5 L95.5,215.5 L95.5,175.5 z" fill="#FABA00"/>
      <path d="M95.5,175.5 L135.5,175.5 L135.5,215.5 L95.5,215.5 L95.5,175.5 z" fill-opacity="0" stroke="#294270" stroke-width="2"/>
    </g>
    <g>
      <path d="M135.5,175.5 L175.5,175.5 L175.5,215.5 L135.5,215.5 L135.5,175.5 z" fill="#8FC7ED"/>
      <path d="M135.5,175.5 L175.5,175.5 L175.5,215.5 L135.5,215.5 L135.5,175.5 z" fill-opacity="0" stroke="#294270" stroke-width="2"/>
    </g>
    <g>
      <path d="M175.5,175.5 L215.5,175.5 L215.5,215.5 L175.5,215.5 L175.5,175.5 z" fill="#8FC7ED"/>
      <path d="M175.5,175.5 L215.5,175.5 L215.5,215.5 L175.5,215.5 L175.5,175.5 z" fill-opacity="0" stroke="#294270" stroke-width="2"/>
    </g>
    <g>
      <path d="M215.5,175.5 L255.5,175.5 L255.5,215.5 L215.5,215.5 L215.5,175.5 z" fill="#9D9E9E"/>
      <path d="M215.5,175.5 L255.5,175.5 L255.5,215.5 L215.5,215.5 L215.5,175.5 z" fill-opacity="0" stroke="#294270" stroke-width="2"/>
    </g>
    <g>
      <path d="M255.5,175.5 L295.5,175.5 L295.5,215.5 L255.5,215.5 L255.5,175.5 z" fill="#9D9E9E"/>
      <path d="M255.5,175.5 L295.5,175.5 L295.5,215.5 L255.5,215.5 L255.5,175.5 z" fill-opacity="0" stroke="#294270" stroke-width="2"/>
    </g>
    <g>
      <path d="M295.5,175.5 L335.5,175.5 L335.5,215.5 L295.5,215.5 L295.5,175.5 z" fill="#9D9E9E"/>
      <path d="M295.5,175.5 L335.5,175.5 L335.5,215.5 L295.5,215.5 L295.5,175.5 z" fill-opacity="0" stroke="#294270" stroke-width="2"/>
    </g>
    <g>
      <path d="M335.5,175.5 L375.5,175.5 L375.5,215.5 L335.5,215.5 L335.5,175.5 z" fill="#F0801A"/>
      <path d="M335.5,175.5 L375.5,175.5 L375.5,215.5 L335.5,215.5 L335.5,175.5 z" fill-opacity="0" stroke="#294270" stroke-width="2"/>
    </g>
    <g>
      <path d="M15.5,215.5 L55.5,215.5 L55.5,255.5 L15.5,255.5 L15.5,215.5 z" fill="#8FC7ED"/>
      <path d="M15.5,215.5 L55.5,215.5 L55.5,255.5 L15.5,255.5 L15.5,215.5 z" fill-opacity="0" stroke="#294270" stroke-width="2"/>
    </g>
    <g>
      <path d="M55.5,215.5 L95.5,215.5 L95.5,255.5 L55.5,255.5 L55.5,215.5 z" fill="#9D9E9E"/>
      <path d="M55.5,215.5 L95.5,215.5 L95.5,255.5 L55.5,255.5 L55.5,215.5 z" fill-opacity="0" stroke="#294270" stroke-width="2"/>
    </g>
    <g>
      <path d="M95.5,215.5 L135.5,215.5 L135.5,255.5 L95.5,255.5 L95.5,215.5 z" fill="#F0801A"/>
      <path d="M95.5,215.5 L135.5,215.5 L135.5,255.5 L95.5,255.5 L95.5,215.5 z" fill-opacity="0" stroke="#294270" stroke-width="2"/>
    </g>
    <g>
      <path d="M135.5,215.5 L175.5,215.5 L175.5,255.5 L135.5,255.5 L135.5,215.5 z" fill="#F0801A"/>
      <path d="M135.5,215.5 L175.5,215.5 L175.5,255.5 L135.5,255.5 L135.5,215.5 z" fill-opacity="0" stroke="#294270" stroke-width="2"/>
    </g>
    <g>
      <path d="M175.5,215.5 L215.5,215.5 L215.5,255.5 L175.5,255.5 L175.5,215.5 z" fill="#F0801A"/>
      <path d="M175.5,215.5 L215.5,215.5 L215.5,255.5 L175.5,255.5 L175.5,215.5 z" fill-opacity="0" stroke="#294270" stroke-width="2"/>
    </g>
    <g>
      <path d="M215.5,215.5 L255.5,215.5 L255.5,255.5 L215.5,255.5 L215.5,215.5 z" fill="#F0801A"/>
      <path d="M215.5,215.5 L255.5,215.5 L255.5,255.5 L215.5,255.5 L215.5,215.5 z" fill-opacity="0" stroke="#294270" stroke-width="2"/>
    </g>
    <g>
      <path d="M255.5,215.5 L295.5,215.5 L295.5,255.5 L255.5,255.5 L255.5,215.5 z" fill="#F0801A"/>
      <path d="M255.5,215.5 L295.5,215.5 L295.5,255.5 L255.5,255.5 L255.5,215.5 z" fill-opacity="0" stroke="#294270" stroke-width="2"/>
    </g>
    <g>
      <path d="M295.5,215.5 L335.5,215.5 L335.5,255.5 L295.5,255.5 L295.5,215.5 z" fill="#F0801A"/>
      <path d="M295.5,215.5 L335.5,215.5 L335.5,255.5 L295.5,255.5 L295.5,215.5 z" fill-opacity="0" stroke="#294270" stroke-width="2"/>
    </g>
    <g>
      <path d="M335.5,215.5 L375.5,215.5 L375.5,255.5 L335.5,255.5 L335.5,215.5 z" fill="#F0801A"/>
      <path d="M335.5,215.5 L375.5,215.5 L375.5,255.5 L335.5,255.5 L335.5,215.5 z" fill-opacity="0" stroke="#294270" stroke-width="2"/>
    </g>
    <g>
      <path d="M15.5,255.5 L55.5,255.5 L55.5,295.5 L15.5,295.5 L15.5,255.5 z" fill="#8FC7ED"/>
      <path d="M15.5,255.5 L55.5,255.5 L55.5,295.5 L15.5,295.5 L15.5,255.5 z" fill-opacity="0" stroke="#294270" stroke-width="2"/>
    </g>
    <g>
      <path d="M55.5,255.5 L95.5,255.5 L95.5,295.5 L55.5,295.5 L55.5,255.5 z" fill="#9D9E9E"/>
      <path d="M55.5,255.5 L95.5,255.5 L95.5,295.5 L55.5,295.5 L55.5,255.5 z" fill-opacity="0" stroke="#294270" stroke-width="2"/>
    </g>
    <g>
      <path d="M95.5,255.5 L135.5,255.5 L135.5,295.5 L95.5,295.5 L95.5,255.5 z" fill="#9D9E9E"/>
      <path d="M95.5,255.5 L135.5,255.5 L135.5,295.5 L95.5,295.5 L95.5,255.5 z" fill-opacity="0" stroke="#294270" stroke-width="2"/>
    </g>
    <g>
      <path d="M135.5,255.5 L175.5,255.5 L175.5,295.5 L135.5,295.5 L135.5,255.5 z" fill="#9D9E9E"/>
      <path d="M135.5,255.5 L175.5,255.5 L175.5,295.5 L135.5,295.5 L135.5,255.5 z" fill-opacity="0" stroke="#294270" stroke-width="2"/>
    </g>
    <g>
      <path d="M175.5,255.5 L215.5,255.5 L215.5,295.5 L175.5,295.5 L175.5,255.5 z" fill="#9D9E9E"/>
      <path d="M175.5,255.5 L215.5,255.5 L215.5,295.5 L175.5,295.5 L175.5,255.5 z" fill-opacity="0" stroke="#294270" stroke-width="2"/>
    </g>
    <g>
      <path d="M215.5,255.5 L255.5,255.5 L255.5,295.5 L215.5,295.5 L215.5,255.5 z" fill="#9D9E9E"/>
      <path d="M215.5,255.5 L255.5,255.5 L255.5,295.5 L215.5,295.5 L215.5,255.5 z" fill-opacity="0" stroke="#294270" stroke-width="2"/>
    </g>
    <g>
      <path d="M255.5,255.5 L295.5,255.5 L295.5,295.5 L255.5,295.5 L255.5,255.5 z" fill="#9D9E9E"/>
      <path d="M255.5,255.5 L295.5,255.5 L295.5,295.5 L255.5,295.5 L255.5,255.5 z" fill-opacity="0" stroke="#294270" stroke-width="2"/>
    </g>
    <g>
      <path d="M295.5,255.5 L335.5,255.5 L335.5,295.5 L295.5,295.5 L295.5,255.5 z" fill="#9D9E9E"/>
      <path d="M295.5,255.5 L335.5,255.5 L335.5,295.5 L295.5,295.5 L295.5,255.5 z" fill-opacity="0" stroke="#294270" stroke-width="2"/>
    </g>
    <g>
      <path d="M335.5,255.5 L375.5,255.5 L375.5,295.5 L335.5,295.5 L335.5,255.5 z" fill="#9D9E9E"/>
      <path d="M335.5,255.5 L375.5,255.5 L375.5,295.5 L335.5,295.5 L335.5,255.5 z" fill-opacity="0" stroke="#294270" stroke-width="2"/>
    </g>
    <g>
      <path d="M15.5,295.5 L55.5,295.5 L55.5,335.5 L15.5,335.5 L15.5,295.5 z" fill="#8FC7ED"/>
      <path d="M15.5,295.5 L55.5,295.5 L55.5,335.5 L15.5,335.5 L15.5,295.5 z" fill-opacity="0" stroke="#294270" stroke-width="2"/>
    </g>
    <g>
      <path d="M55.5,295.5 L95.5,295.5 L95.5,335.5 L55.5,335.5 L55.5,295.5 z" fill="#8FC7ED"/>
      <path d="M55.5,295.5 L95.5,295.5 L95.5,335.5 L55.5,335.5 L55.5,295.5 z" fill-opacity="0" stroke="#294270" stroke-width="2"/>
    </g>
    <g>
      <path d="M95.5,295.5 L135.5,295.5 L135.5,335.5 L95.5,335.5 L95.5,295.5 z" fill="#8FC7ED"/>
      <path d="M95.5,295.5 L135.5,295.5 L135.5,335.5 L95.5,335.5 L95.5,295.5 z" fill-opacity="0" stroke="#294270" stroke-width="2"/>
    </g>
    <g>
      <path d="M135.5,295.5 L175.5,295.5 L175.5,335.5 L135.5,335.5 L135.5,295.5 z" fill="#8FC7ED"/>
      <path d="M135.5,295.5 L175.5,295.5 L175.5,335.5 L135.5,335.5 L135.5,295.5 z" fill-opacity="0" stroke="#294270" stroke-width="2"/>
    </g>
    <g>
      <path d="M175.5,295.5 L215.5,295.5 L215.5,335.5 L175.5,335.5 L175.5,295.5 z" fill="#8FC7ED"/>
      <path d="M175.5,295.5 L215.5,295.5 L215.5,335.5 L175.5,335.5 L175.5,295.5 z" fill-opacity="0" stroke="#294270" stroke-width="2"/>
    </g>
    <g>
      <path d="M215.5,295.5 L255.5,295.5 L255.5,335.5 L215.5,335.5 L215.5,295.5 z" fill="#8FC7ED"/>
      <path d="M215.5,295.5 L255.5,295.5 L255.5,335.5 L215.5,335.5 L215.5,295.5 z" fill-opacity="0" stroke="#294270" stroke-width="2"/>
    </g>
    <g>
      <path d="M255.5,295.5 L295.5,295.5 L295.5,335.5 L255.5,335.5 L255.5,295.5 z" fill="#8FC7ED"/>
      <path d="M255.5,295.5 L295.5,295.5 L295.5,335.5 L255.5,335.5 L255.5,295.5 z" fill-opacity="0" stroke="#294270" stroke-width="2"/>
    </g>
    <g>
      <path d="M295.5,295.5 L335.5,295.5 L335.5,335.5 L295.5,335.5 L295.5,295.5 z" fill="#8FC7ED"/>
      <path d="M295.5,295.5 L335.5,295.5 L335.5,335.5 L295.5,335.5 L295.5,295.5 z" fill-opacity="0" stroke="#294270" stroke-width="2"/>
    </g>
    <g>
      <path d="M335.5,295.5 L375.5,295.5 L375.5,335.5 L335.5,335.5 L335.5,295.5 z" fill="#8FC7ED"/>
      <path d="M335.5,295.5 L375.5,295.5 L375.5,335.5 L335.5,335.5 L335.5,295.5 z" fill-opacity="0" stroke="#294270" stroke-width="2"/>
    </g>
    <text transform="matrix(1, 0, 0, 1, 35, 35)">
      <tspan x="-8.606" y="11" font-family="Roboto-Bold" font-size="30" fill="#294270">0</tspan>
    </text>
    <text transform="matrix(1, 0, 0, 1, 35, 115)">
      <tspan x="-8.606" y="11" font-family="Roboto-Bold" font-size="30" fill="#294270">0</tspan>
    </text>
    <text transform="matrix(1, 0, 0, 1, 35, 75)">
      <tspan x="-8.606" y="11" font-family="Roboto-Bold" font-size="30" fill="#294270">0</tspan>
    </text>
    <text transform="matrix(1, 0, 0, 1, 115, 35)">
      <tspan x="-8.606" y="11" font-family="Roboto-Bold" font-size="30" fill="#294270">0</tspan>
    </text>
    <text transform="matrix(1, 0, 0, 1, 75, 35)">
      <tspan x="-8.606" y="11" font-family="Roboto-Bold" font-size="30" fill="#294270">0</tspan>
    </text>
    <text transform="matrix(1, 0, 0, 1, 155, 35)">
      <tspan x="-8.606" y="11" font-family="Roboto-Bold" font-size="30" fill="#294270">1</tspan>
    </text>
    <text transform="matrix(1, 0, 0, 1, 75, 155)">
      <tspan x="-8.606" y="11" font-family="Roboto-Bold" font-size="30" fill="#294270">1</tspan>
    </text>
    <text transform="matrix(1, 0, 0, 1, 35, 155)">
      <tspan x="-8.606" y="11" font-family="Roboto-Bold" font-size="30" fill="#294270">1</tspan>
    </text>
    <text transform="matrix(1, 0, 0, 1, 115, 115)">
      <tspan x="-8.606" y="11" font-family="Roboto-Bold" font-size="30" fill="#294270">1</tspan>
    </text>
    <text transform="matrix(1, 0, 0, 1, 75, 115)">
      <tspan x="-8.606" y="11" font-family="Roboto-Bold" font-size="30" fill="#294270">1</tspan>
    </text>
    <text transform="matrix(1, 0, 0, 1, 155, 75)">
      <tspan x="-8.606" y="11" font-family="Roboto-Bold" font-size="30" fill="#294270">1</tspan>
    </text>
    <text transform="matrix(1, 0, 0, 1, 115, 75)">
      <tspan x="-8.606" y="11" font-family="Roboto-Bold" font-size="30" fill="#294270">1</tspan>
    </text>
    <text transform="matrix(1, 0, 0, 1, 75, 75)">
      <tspan x="-8.606" y="11" font-family="Roboto-Bold" font-size="30" fill="#294270">1</tspan>
    </text>
    <text transform="matrix(1, 0, 0, 1, 115, 195)">
      <tspan x="-8.606" y="11" font-family="Roboto-Bold" font-size="30" fill="#294270">1</tspan>
    </text>
    <text transform="matrix(1, 0, 0, 1, 75, 195)">
      <tspan x="-8.606" y="11" font-family="Roboto-Bold" font-size="30" fill="#294270">1</tspan>
    </text>
    <text transform="matrix(1, 0, 0, 1, 35, 195)">
      <tspan x="-8.606" y="11" font-family="Roboto-Bold" font-size="30" fill="#294270">1</tspan>
    </text>
    <text transform="matrix(1, 0, 0, 1, 115, 155)">
      <tspan x="-8.606" y="11" font-family="Roboto-Bold" font-size="30" fill="#294270">1</tspan>
    </text>
    <text transform="matrix(1, 0, 0, 1, 155, 195)">
      <tspan x="-8.606" y="11" font-family="Roboto-Bold" font-size="30" fill="#294270">2</tspan>
    </text>
    <text transform="matrix(1, 0, 0, 1, 195, 195)">
      <tspan x="-8.606" y="11" font-family="Roboto-Bold" font-size="30" fill="#294270">2</tspan>
    </text>
    <text transform="matrix(1, 0, 0, 1, 195, 155)">
      <tspan x="-8.606" y="11" font-family="Roboto-Bold" font-size="30" fill="#294270">2</tspan>
    </text>
    <text transform="matrix(1, 0, 0, 1, 155, 155)">
      <tspan x="-8.606" y="11" font-family="Roboto-Bold" font-size="30" fill="#294270">3</tspan>
    </text>
    <text transform="matrix(1, 0, 0, 1, 315, 75)">
      <tspan x="-8.606" y="11" font-family="Roboto-Bold" font-size="30" fill="#294270">3</tspan>
    </text>
    <text transform="matrix(1, 0, 0, 1, 275, 75)">
      <tspan x="-8.606" y="11" font-family="Roboto-Bold" font-size="30" fill="#294270">3</tspan>
    </text>
    <text transform="matrix(1, 0, 0, 1, 235, 75)">
      <tspan x="-8.606" y="11" font-family="Roboto-Bold" font-size="30" fill="#294270">3</tspan>
    </text>
    <text transform="matrix(1, 0, 0, 1, 195, 75)">
      <tspan x="-8.606" y="11" font-family="Roboto-Bold" font-size="30" fill="#294270">3</tspan>
    </text>
    <text transform="matrix(1, 0, 0, 1, 195, 115)">
      <tspan x="-8.606" y="11" font-family="Roboto-Bold" font-size="30" fill="#294270">3</tspan>
    </text>
    <text transform="matrix(1, 0, 0, 1, 155, 115)">
      <tspan x="-8.606" y="11" font-family="Roboto-Bold" font-size="30" fill="#294270">3</tspan>
    </text>
    <text transform="matrix(1, 0, 0, 1, 315, 115)">
      <tspan x="-8.606" y="11" font-family="Roboto-Bold" font-size="30" fill="#294270">3</tspan>
    </text>
    <text transform="matrix(1, 0, 0, 1, 195, 35)">
      <tspan x="-8.606" y="11" font-family="Roboto-Bold" font-size="30" fill="#294270">4</tspan>
    </text>
    <text transform="matrix(1, 0, 0, 1, 355, 35)">
      <tspan x="-8.606" y="11" font-family="Roboto-Bold" font-size="30" fill="#294270">4</tspan>
    </text>
    <text transform="matrix(1, 0, 0, 1, 315, 35)">
      <tspan x="-8.606" y="11" font-family="Roboto-Bold" font-size="30" fill="#294270">4</tspan>
    </text>
    <text transform="matrix(1, 0, 0, 1, 275, 35)">
      <tspan x="-8.606" y="11" font-family="Roboto-Bold" font-size="30" fill="#294270">4</tspan>
    </text>
    <text transform="matrix(1, 0, 0, 1, 235, 35)">
      <tspan x="-8.606" y="11" font-family="Roboto-Bold" font-size="30" fill="#294270">4</tspan>
    </text>
    <text transform="matrix(1, 0, 0, 1, 355, 115)">
      <tspan x="-8.606" y="11" font-family="Roboto-Bold" font-size="30" fill="#294270">4</tspan>
    </text>
    <text transform="matrix(1, 0, 0, 1, 355, 75)">
      <tspan x="-8.606" y="11" font-family="Roboto-Bold" font-size="30" fill="#294270">4</tspan>
    </text>
    <text transform="matrix(1, 0, 0, 1, 275, 115)">
      <tspan x="-8.606" y="11" font-family="Roboto-Bold" font-size="30" fill="#294270">5</tspan>
    </text>
    <text transform="matrix(1, 0, 0, 1, 315, 155)">
      <tspan x="-8.606" y="11" font-family="Roboto-Bold" font-size="30" fill="#294270">5</tspan>
    </text>
    <text transform="matrix(1, 0, 0, 1, 275, 155)">
      <tspan x="-8.606" y="11" font-family="Roboto-Bold" font-size="30" fill="#294270">5</tspan>
    </text>
    <text transform="matrix(1, 0, 0, 1, 235, 115)">
      <tspan x="-8.606" y="11" font-family="Roboto-Bold" font-size="30" fill="#294270">6</tspan>
    </text>
    <text transform="matrix(1, 0, 0, 1, 315, 195)">
      <tspan x="-8.606" y="11" font-family="Roboto-Bold" font-size="30" fill="#294270">6</tspan>
    </text>
    <text transform="matrix(1, 0, 0, 1, 275, 195)">
      <tspan x="-8.606" y="11" font-family="Roboto-Bold" font-size="30" fill="#294270">6</tspan>
    </text>
    <text transform="matrix(1, 0, 0, 1, 235, 195)">
      <tspan x="-8.606" y="11" font-family="Roboto-Bold" font-size="30" fill="#294270">6</tspan>
    </text>
    <text transform="matrix(1, 0, 0, 1, 235, 155)">
      <tspan x="-8.606" y="11" font-family="Roboto-Bold" font-size="30" fill="#294270">6</tspan>
    </text>
    <text transform="matrix(1, 0, 0, 1, 35, 235)">
      <tspan x="-8.606" y="11" font-family="Roboto-Bold" font-size="30" fill="#294270">7</tspan>
    </text>
    <text transform="matrix(1, 0, 0, 1, 355, 315)">
      <tspan x="-8.606" y="11" font-family="Roboto-Bold" font-size="30" fill="#294270">7</tspan>
    </text>
    <text transform="matrix(1, 0, 0, 1, 315, 315)">
      <tspan x="-8.606" y="11" font-family="Roboto-Bold" font-size="30" fill="#294270">7</tspan>
    </text>
    <text transform="matrix(1, 0, 0, 1, 275, 315)">
      <tspan x="-8.606" y="11" font-family="Roboto-Bold" font-size="30" fill="#294270">7</tspan>
    </text>
    <text transform="matrix(1, 0, 0, 1, 235, 315)">
      <tspan x="-8.606" y="11" font-family="Roboto-Bold" font-size="30" fill="#294270">7</tspan>
    </text>
    <text transform="matrix(1, 0, 0, 1, 195, 315)">
      <tspan x="-8.606" y="11" font-family="Roboto-Bold" font-size="30" fill="#294270">7</tspan>
    </text>
    <text transform="matrix(1, 0, 0, 1, 155, 315)">
      <tspan x="-8.606" y="11" font-family="Roboto-Bold" font-size="30" fill="#294270">7</tspan>
    </text>
    <text transform="matrix(1, 0, 0, 1, 115, 315)">
      <tspan x="-8.606" y="11" font-family="Roboto-Bold" font-size="30" fill="#294270">7</tspan>
    </text>
    <text transform="matrix(1, 0, 0, 1, 75, 315)">
      <tspan x="-8.606" y="11" font-family="Roboto-Bold" font-size="30" fill="#294270">7</tspan>
    </text>
    <text transform="matrix(1, 0, 0, 1, 35, 315)">
      <tspan x="-8.606" y="11" font-family="Roboto-Bold" font-size="30" fill="#294270">7</tspan>
    </text>
    <text transform="matrix(1, 0, 0, 1, 35, 275)">
      <tspan x="-8.606" y="11" font-family="Roboto-Bold" font-size="30" fill="#294270">7</tspan>
    </text>
    <text transform="matrix(1, 0, 0, 1, 75, 235)">
      <tspan x="-8.606" y="11" font-family="Roboto-Bold" font-size="30" fill="#294270">8</tspan>
    </text>
    <text transform="matrix(1, 0, 0, 1, 315, 275)">
      <tspan x="-8.606" y="11" font-family="Roboto-Bold" font-size="30" fill="#294270">8</tspan>
    </text>
    <text transform="matrix(1, 0, 0, 1, 275, 275)">
      <tspan x="-8.606" y="11" font-family="Roboto-Bold" font-size="30" fill="#294270">8</tspan>
    </text>
    <text transform="matrix(1, 0, 0, 1, 235, 275)">
      <tspan x="-8.606" y="11" font-family="Roboto-Bold" font-size="30" fill="#294270">8</tspan>
    </text>
    <text transform="matrix(1, 0, 0, 1, 195, 275)">
      <tspan x="-8.606" y="11" font-family="Roboto-Bold" font-size="30" fill="#294270">8</tspan>
    </text>
    <text transform="matrix(1, 0, 0, 1, 155, 275)">
      <tspan x="-8.606" y="11" font-family="Roboto-Bold" font-size="30" fill="#294270">8</tspan>
    </text>
    <text transform="matrix(1, 0, 0, 1, 115, 275)">
      <tspan x="-8.606" y="11" font-family="Roboto-Bold" font-size="30" fill="#294270">8</tspan>
    </text>
    <text transform="matrix(1, 0, 0, 1, 75, 275)">
      <tspan x="-8.606" y="11" font-family="Roboto-Bold" font-size="30" fill="#294270">8</tspan>
    </text>
    <text transform="matrix(1, 0, 0, 1, 355, 275)">
      <tspan x="-8.606" y="11" font-family="Roboto-Bold" font-size="30" fill="#294270">8</tspan>
    </text>
    <text transform="matrix(1, 0, 0, 1, 115, 235)">
      <tspan x="-8.606" y="11" font-family="Roboto-Bold" font-size="30" fill="#294270">9</tspan>
    </text>
    <text transform="matrix(1, 0, 0, 1, 355, 235)">
      <tspan x="-8.606" y="11" font-family="Roboto-Bold" font-size="30" fill="#294270">9</tspan>
    </text>
    <text transform="matrix(1, 0, 0, 1, 315, 235)">
      <tspan x="-8.606" y="11" font-family="Roboto-Bold" font-size="30" fill="#294270">9</tspan>
    </text>
    <text transform="matrix(1, 0, 0, 1, 275, 235)">
      <tspan x="-8.606" y="11" font-family="Roboto-Bold" font-size="30" fill="#294270">9</tspan>
    </text>
    <text transform="matrix(1, 0, 0, 1, 235, 235)">
      <tspan x="-8.606" y="11" font-family="Roboto-Bold" font-size="30" fill="#294270">9</tspan>
    </text>
    <text transform="matrix(1, 0, 0, 1, 195, 235)">
      <tspan x="-8.606" y="11" font-family="Roboto-Bold" font-size="30" fill="#294270">9</tspan>
    </text>
    <text transform="matrix(1, 0, 0, 1, 155, 235)">
      <tspan x="-8.606" y="11" font-family="Roboto-Bold" font-size="30" fill="#294270">9</tspan>
    </text>
    <text transform="matrix(1, 0, 0, 1, 355, 155)">
      <tspan x="-8.606" y="11" font-family="Roboto-Bold" font-size="30" fill="#294270">9</tspan>
    </text>
    <text transform="matrix(1, 0, 0, 1, 355, 195)">
      <tspan x="-8.606" y="11" font-family="Roboto-Bold" font-size="30" fill="#294270">9</tspan>
    </text>
    <g>
      <path d="M400.5,40.5 L440.5,40.5 L440.5,80.5 L400.5,80.5 L400.5,40.5 z" fill="#9D9E9E"/>
      <path d="M400.5,40.5 L440.5,40.5 L440.5,80.5 L400.5,80.5 L400.5,40.5 z" fill-opacity="0" stroke="#294270" stroke-width="2"/>
    </g>
    <g>
      <path d="M400.5,120.5 L440.5,120.5 L440.5,160.5 L400.5,160.5 L400.5,120.5 z" fill="#8FC7ED"/>
      <path d="M400.5,120.5 L440.5,120.5 L440.5,160.5 L400.5,160.5 L400.5,120.5 z" fill-opacity="0" stroke="#294270" stroke-width="2"/>
    </g>
    <g>
      <path d="M400.5,200.5 L440.5,200.5 L440.5,240.5 L400.5,240.5 L400.5,200.5 z" fill="#FABA00"/>
      <path d="M400.5,200.5 L440.5,200.5 L440.5,240.5 L400.5,240.5 L400.5,200.5 z" fill-opacity="0" stroke="#294270" stroke-width="2"/>
    </g>
    <g>
      <path d="M400.5,280.5 L440.5,280.5 L440.5,320.5 L400.5,320.5 L400.5,280.5 z" fill="#F0801A"/>
      <path d="M400.5,280.5 L440.5,280.5 L440.5,320.5 L400.5,320.5 L400.5,280.5 z" fill-opacity="0" stroke="#294270" stroke-width="2"/>
    </g>
    <text transform="matrix(1, 0, 0, 1, 458.606, 60)">
      <tspan x="-8.606" y="11" font-family="Roboto-Bold" font-size="30" fill="#294270">1</tspan>
    </text>
    <text transform="matrix(1, 0, 0, 1, 463.606, 140)">
      <tspan x="-8.606" y="11" font-family="Roboto-Bold" font-size="30" fill="#294270">2</tspan>
    </text>
    <text transform="matrix(1, 0, 0, 1, 463.606, 220)">
      <tspan x="-8.606" y="11" font-family="Roboto-Bold" font-size="30" fill="#294270">3</tspan>
    </text>
    <text transform="matrix(1, 0, 0, 1, 463.606, 300)">
      <tspan x="-8.606" y="11" font-family="Roboto-Bold" font-size="30" fill="#294270">4</tspan>
    </text>
    <text transform="matrix(1, 0, 0, 1, 195, 366.5)">
      <tspan x="-162.832" y="11" font-family="Roboto-Bold" font-size="30" fill="#294270">[1, 3, 2, 4, 2, 3, 1, 2, 1, 4]</tspan>
    </text>
  </g>
</svg>
