<?xml version="1.0" encoding="UTF-8"?>
<!DOCTYPE svg PUBLIC "-//W3C//DTD SVG 1.1//EN" "http://www.w3.org/Graphics/SVG/1.1/DTD/svg11.dtd">
<svg version="1.1" xmlns="http://www.w3.org/2000/svg" xmlns:xlink="http://www.w3.org/1999/xlink" x="0" y="0" width="400" height="400" viewBox="0, 0, 400, 400">
  <g id="Background">
    <rect x="0" y="0" width="400" height="400" fill="#000000" fill-opacity="0"/>
  </g>
  <g id="Layer_1">
    <g>
      <path d="M148.084,106.673 L134.667,83.435 L148.084,60.197 L174.916,60.197 L188.333,83.435 L174.916,106.673 z" fill="#8FC7ED"/>
      <path d="M148.084,106.673 L134.667,83.435 L148.084,60.197 L174.916,60.197 L188.333,83.435 L174.916,106.673 z" fill-opacity="0" stroke="#294371" stroke-width="3" stroke-dasharray="9,6"/>
    </g>
    <g>
      <path d="M187.251,84.31 L173.834,61.073 L187.251,37.835 L214.084,37.835 L227.5,61.073 L214.084,84.31 z" fill="#8FC7ED"/>
      <path d="M187.251,84.31 L173.834,61.073 L187.251,37.835 L214.084,37.835 L227.5,61.073 L214.084,84.31 z" fill-opacity="0" stroke="#294371" stroke-width="3" stroke-dasharray="9,6"/>
    </g>
    <g>
      <path d="M226.084,106.673 L212.667,83.435 L226.084,60.197 L252.916,60.197 L266.333,83.435 L252.916,106.673 z" fill="#8FC7ED"/>
      <path d="M226.084,106.673 L212.667,83.435 L226.084,60.197 L252.916,60.197 L266.333,83.435 L252.916,106.673 z" fill-opacity="0" stroke="#294371" stroke-width="3" stroke-dasharray="9,6"/>
    </g>
    <g>
      <path d="M265.684,130.786 L252.267,107.548 L265.684,84.31 L292.516,84.31 L305.933,107.548 L292.516,130.786 z" fill="#8FC7ED"/>
      <path d="M265.684,130.786 L252.267,107.548 L265.684,84.31 L292.516,84.31 L305.933,107.548 L292.516,130.786 z" fill-opacity="0" stroke="#294371" stroke-width="3" stroke-dasharray="9,6"/>
    </g>
    <g>
      <path d="M304.728,153.238 L291.312,130 L304.728,106.762 L331.561,106.762 L344.978,130 L331.561,153.238 z" fill="#8FC7ED"/>
      <path d="M304.728,153.238 L291.312,130 L304.728,106.762 L331.561,106.762 L344.978,130 L331.561,153.238 z" fill-opacity="0" stroke="#294371" stroke-width="3" stroke-dasharray="9,6"/>
    </g>
    <g>
      <path d="M108.484,130.786 L95.067,107.548 L108.484,84.31 L135.316,84.31 L148.733,107.548 L135.316,130.786 z" fill="#8FC7ED"/>
      <path d="M108.484,130.786 L95.067,107.548 L108.484,84.31 L135.316,84.31 L148.733,107.548 L135.316,130.786 z" fill-opacity="0" stroke="#294371" stroke-width="3" stroke-dasharray="9,6"/>
    </g>
    <g>
      <path d="M69.251,201.024 L55.834,177.786 L69.251,154.548 L96.084,154.548 L109.5,177.786 L96.084,201.024 z" fill="#8FC7ED"/>
      <path d="M69.251,201.024 L55.834,177.786 L69.251,154.548 L96.084,154.548 L109.5,177.786 L96.084,201.024 z" fill-opacity="0" stroke="#294371" stroke-width="3" stroke-dasharray="9,6"/>
    </g>
    <g>
      <path d="M187.251,363.165 L173.834,339.927 L187.251,316.69 L214.084,316.69 L227.5,339.927 L214.084,363.165 z" fill="#8FC7ED"/>
      <path d="M187.251,363.165 L173.834,339.927 L187.251,316.69 L214.084,316.69 L227.5,339.927 L214.084,363.165 z" fill-opacity="0" stroke="#294371" stroke-width="3" stroke-dasharray="9,6"/>
    </g>
    <g>
      <path d="M148.084,339.052 L134.667,315.814 L148.084,292.576 L174.916,292.576 L188.333,315.814 L174.916,339.052 z" fill="#8FC7ED"/>
      <path d="M148.084,339.052 L134.667,315.814 L148.084,292.576 L174.916,292.576 L188.333,315.814 L174.916,339.052 z" fill-opacity="0" stroke="#294371" stroke-width="3" stroke-dasharray="9,6"/>
    </g>
    <g>
      <path d="M108.484,316.69 L95.067,293.452 L108.484,270.214 L135.316,270.214 L148.733,293.452 L135.316,316.69 z" fill="#8FC7ED"/>
      <path d="M108.484,316.69 L95.067,293.452 L108.484,270.214 L135.316,270.214 L148.733,293.452 L135.316,316.69 z" fill-opacity="0" stroke="#294371" stroke-width="3" stroke-dasharray="9,6"/>
    </g>
    <g>
      <path d="M69.251,292.576 L55.834,269.338 L69.251,246.1 L96.084,246.1 L109.5,269.338 L96.084,292.576 z" fill="#8FC7ED"/>
      <path d="M69.251,292.576 L55.834,269.338 L69.251,246.1 L96.084,246.1 L109.5,269.338 L96.084,292.576 z" fill-opacity="0" stroke="#294371" stroke-width="3" stroke-dasharray="9,6"/>
    </g>
    <g>
      <path d="M69.251,246.1 L55.834,222.862 L69.251,199.624 L96.084,199.624 L109.5,222.862 L96.084,246.1 z" fill="#8FC7ED"/>
      <path d="M69.251,246.1 L55.834,222.862 L69.251,199.624 L96.084,199.624 L109.5,222.862 L96.084,246.1 z" fill-opacity="0" stroke="#294371" stroke-width="3" stroke-dasharray="9,6"/>
    </g>
    <g>
      <path d="M304.728,201.024 L291.312,177.786 L304.728,154.548 L331.561,154.548 L344.978,177.786 L331.561,201.024 z" fill="#8FC7ED"/>
      <path d="M304.728,201.024 L291.312,177.786 L304.728,154.548 L331.561,154.548 L344.978,177.786 L331.561,201.024 z" fill-opacity="0" stroke="#294371" stroke-width="3" stroke-dasharray="9,6"/>
    </g>
    <g>
      <path d="M226.084,339.052 L212.667,315.814 L226.084,292.576 L252.916,292.576 L266.333,315.814 L252.916,339.052 z" fill="#8FC7ED"/>
      <path d="M226.084,339.052 L212.667,315.814 L226.084,292.576 L252.916,292.576 L266.333,315.814 L252.916,339.052 z" fill-opacity="0" stroke="#294371" stroke-width="3" stroke-dasharray="9,6"/>
    </g>
    <g>
      <path d="M304.728,246.1 L291.312,222.862 L304.728,199.624 L331.561,199.624 L344.978,222.862 L331.561,246.1 z" fill="#8FC7ED"/>
      <path d="M304.728,246.1 L291.312,222.862 L304.728,199.624 L331.561,199.624 L344.978,222.862 L331.561,246.1 z" fill-opacity="0" stroke="#294371" stroke-width="3" stroke-dasharray="9,6"/>
    </g>
    <g>
      <path d="M265.684,316.69 L252.267,293.452 L265.684,270.214 L292.516,270.214 L305.933,293.452 L292.516,316.69 z" fill="#8FC7ED"/>
      <path d="M265.684,316.69 L252.267,293.452 L265.684,270.214 L292.516,270.214 L305.933,293.452 L292.516,316.69 z" fill-opacity="0" stroke="#294371" stroke-width="3" stroke-dasharray="9,6"/>
    </g>
    <g>
      <path d="M304.728,292.576 L291.312,269.338 L304.728,246.1 L331.561,246.1 L344.978,269.338 L331.561,292.576 z" fill="#8FC7ED"/>
      <path d="M304.728,292.576 L291.312,269.338 L304.728,246.1 L331.561,246.1 L344.978,269.338 L331.561,292.576 z" fill-opacity="0" stroke="#294371" stroke-width="3" stroke-dasharray="9,6"/>
    </g>
    <g>
      <path d="M69.251,154.548 L55.834,131.311 L69.251,108.073 L96.084,108.073 L109.5,131.311 L96.084,154.548 z" fill="#8FC7ED"/>
      <path d="M69.251,154.548 L55.834,131.311 L69.251,108.073 L96.084,108.073 L109.5,131.311 L96.084,154.548 z" fill-opacity="0" stroke="#294371" stroke-width="3" stroke-dasharray="9,6"/>
    </g>
    <g>
      <path d="M187.251,223.738 L173.834,200.5 L187.251,177.262 L214.084,177.262 L227.5,200.5 L214.084,223.738 z" fill="#65A1CF"/>
      <path d="M187.251,223.738 L173.834,200.5 L187.251,177.262 L214.084,177.262 L227.5,200.5 L214.084,223.738 z" fill-opacity="0" stroke="#294371" stroke-width="3.6"/>
    </g>
    <g>
      <path d="M187.251,177.262 L173.834,154.024 L187.251,130.786 L214.084,130.786 L227.5,154.024 L214.084,177.262 z" fill="#8FC7ED"/>
      <path d="M187.251,177.262 L173.834,154.024 L187.251,130.786 L214.084,130.786 L227.5,154.024 L214.084,177.262 z" fill-opacity="0" stroke="#294371" stroke-width="3.6"/>
    </g>
    <g>
      <path d="M226.084,153.148 L212.667,129.91 L226.084,106.673 L252.916,106.673 L266.333,129.91 L252.916,153.148 z" fill="#8FC7ED"/>
      <path d="M226.084,153.148 L212.667,129.91 L226.084,106.673 L252.916,106.673 L266.333,129.91 L252.916,153.148 z" fill-opacity="0" stroke="#294371" stroke-width="3.6"/>
    </g>
    <g>
      <path d="M187.251,130.786 L173.834,107.548 L187.251,84.31 L214.084,84.31 L227.5,107.548 L214.084,130.786 z" fill="#8FC7ED"/>
      <path d="M187.251,130.786 L173.834,107.548 L187.251,84.31 L214.084,84.31 L227.5,107.548 L214.084,130.786 z" fill-opacity="0" stroke="#294371" stroke-width="3.6"/>
    </g>
    <g>
      <path d="M148.084,153.148 L134.667,129.91 L148.084,106.673 L174.916,106.673 L188.333,129.91 L174.916,153.148 z" fill="#8FC7ED"/>
      <path d="M148.084,153.148 L134.667,129.91 L148.084,106.673 L174.916,106.673 L188.333,129.91 L174.916,153.148 z" fill-opacity="0" stroke="#294371" stroke-width="3.6"/>
    </g>
    <g>
      <path d="M148.084,199.624 L134.667,176.386 L148.084,153.148 L174.916,153.148 L188.333,176.386 L174.916,199.624 z" fill="#8FC7ED"/>
      <path d="M148.084,199.624 L134.667,176.386 L148.084,153.148 L174.916,153.148 L188.333,176.386 L174.916,199.624 z" fill-opacity="0" stroke="#294371" stroke-width="3.6"/>
    </g>
    <g>
      <path d="M148.084,246.1 L134.667,222.862 L148.084,199.624 L174.916,199.624 L188.333,222.862 L174.916,246.1 z" fill="#8FC7ED"/>
      <path d="M148.084,246.1 L134.667,222.862 L148.084,199.624 L174.916,199.624 L188.333,222.862 L174.916,246.1 z" fill-opacity="0" stroke="#294371" stroke-width="3.6"/>
    </g>
    <g>
      <path d="M187.251,270.214 L173.834,246.976 L187.251,223.738 L214.084,223.738 L227.5,246.976 L214.084,270.214 z" fill="#8FC7ED"/>
      <path d="M187.251,270.214 L173.834,246.976 L187.251,223.738 L214.084,223.738 L227.5,246.976 L214.084,270.214 z" fill-opacity="0" stroke="#294371" stroke-width="3.6"/>
    </g>
    <g>
      <path d="M226.084,246.1 L212.667,222.862 L226.084,199.624 L252.916,199.624 L266.333,222.862 L252.916,246.1 z" fill="#8FC7ED"/>
      <path d="M226.084,246.1 L212.667,222.862 L226.084,199.624 L252.916,199.624 L266.333,222.862 L252.916,246.1 z" fill-opacity="0" stroke="#294371" stroke-width="3.6"/>
    </g>
    <g>
      <path d="M226.084,199.624 L212.667,176.386 L226.084,153.148 L252.916,153.148 L266.333,176.386 L252.916,199.624 z" fill="#8FC7ED"/>
      <path d="M226.084,199.624 L212.667,176.386 L226.084,153.148 L252.916,153.148 L266.333,176.386 L252.916,199.624 z" fill-opacity="0" stroke="#294371" stroke-width="3.6"/>
    </g>
    <g>
      <path d="M108.484,177.262 L95.067,154.024 L108.484,130.786 L135.316,130.786 L148.733,154.024 L135.316,177.262 z" fill="#8FC7ED"/>
      <path d="M108.484,177.262 L95.067,154.024 L108.484,130.786 L135.316,130.786 L148.733,154.024 L135.316,177.262 z" fill-opacity="0" stroke="#294371" stroke-width="3.6"/>
    </g>
    <g>
      <path d="M108.484,223.738 L95.067,200.5 L108.484,177.262 L135.316,177.262 L148.733,200.5 L135.316,223.738 z" fill="#8FC7ED"/>
      <path d="M108.484,223.738 L95.067,200.5 L108.484,177.262 L135.316,177.262 L148.733,200.5 L135.316,223.738 z" fill-opacity="0" stroke="#294371" stroke-width="3.6"/>
    </g>
    <g>
      <path d="M108.484,270.214 L95.067,246.976 L108.484,223.738 L135.316,223.738 L148.733,246.976 L135.316,270.214 z" fill="#8FC7ED"/>
      <path d="M108.484,270.214 L95.067,246.976 L108.484,223.738 L135.316,223.738 L148.733,246.976 L135.316,270.214 z" fill-opacity="0" stroke="#294371" stroke-width="3.6"/>
    </g>
    <g>
      <path d="M148.084,292.576 L134.667,269.338 L148.084,246.1 L174.916,246.1 L188.333,269.338 L174.916,292.576 z" fill="#8FC7ED"/>
      <path d="M148.084,292.576 L134.667,269.338 L148.084,246.1 L174.916,246.1 L188.333,269.338 L174.916,292.576 z" fill-opacity="0" stroke="#294371" stroke-width="3.6"/>
    </g>
    <g>
      <path d="M187.251,316.69 L173.834,293.452 L187.251,270.214 L214.084,270.214 L227.5,293.452 L214.084,316.69 z" fill="#8FC7ED"/>
      <path d="M187.251,316.69 L173.834,293.452 L187.251,270.214 L214.084,270.214 L227.5,293.452 L214.084,316.69 z" fill-opacity="0" stroke="#294371" stroke-width="3.6"/>
    </g>
    <g>
      <path d="M226.084,292.576 L212.667,269.338 L226.084,246.1 L252.916,246.1 L266.333,269.338 L252.916,292.576 z" fill="#8FC7ED"/>
      <path d="M226.084,292.576 L212.667,269.338 L226.084,246.1 L252.916,246.1 L266.333,269.338 L252.916,292.576 z" fill-opacity="0" stroke="#294371" stroke-width="3.6"/>
    </g>
    <g>
      <path d="M265.684,223.738 L252.267,200.5 L265.684,177.262 L292.516,177.262 L305.933,200.5 L292.516,223.738 z" fill="#8FC7ED"/>
      <path d="M265.684,223.738 L252.267,200.5 L265.684,177.262 L292.516,177.262 L305.933,200.5 L292.516,223.738 z" fill-opacity="0" stroke="#294371" stroke-width="3.6"/>
    </g>
    <g>
      <path d="M265.684,270.214 L252.267,246.976 L265.684,223.738 L292.516,223.738 L305.933,246.976 L292.516,270.214 z" fill="#8FC7ED"/>
      <path d="M265.684,270.214 L252.267,246.976 L265.684,223.738 L292.516,223.738 L305.933,246.976 L292.516,270.214 z" fill-opacity="0" stroke="#294371" stroke-width="3.6"/>
    </g>
    <g>
      <path d="M265.684,177.262 L252.267,154.024 L265.684,130.786 L292.516,130.786 L305.933,154.024 L292.516,177.262 z" fill="#8FC7ED"/>
      <path d="M265.684,177.262 L252.267,154.024 L265.684,130.786 L292.516,130.786 L305.933,154.024 L292.516,177.262 z" fill-opacity="0" stroke="#294371" stroke-width="3.6"/>
    </g>
    <text transform="matrix(1, 0, 0, 1, 239, 175.886)">
      <tspan x="-8.606" y="11" font-family="Roboto-Bold" font-size="30" fill="#294270">3</tspan>
    </text>
    <text transform="matrix(1, 0, 0, 1, 239, 222.362)">
      <tspan x="-8.606" y="11" font-family="Roboto-Bold" font-size="30" fill="#294270">4</tspan>
    </text>
    <g>
      <path d="M133.474,193.992 L161.167,177.262 L161.167,147.624" fill-opacity="0" stroke="#F0801A" stroke-width="3"/>
      <path d="M131.302,190.397 L123.888,199.783 L135.646,197.587 z" fill="#F0801A" fill-opacity="1" stroke="#F0801A" stroke-width="3" stroke-opacity="1"/>
      <path d="M165.367,147.624 L161.167,136.424 L156.967,147.624 z" fill="#F0801A" fill-opacity="1" stroke="#F0801A" stroke-width="3" stroke-opacity="1"/>
    </g>
    <text transform="matrix(1, 0, 0, 1, 200, 246.476)">
      <tspan x="-8.606" y="11" font-family="Roboto-Bold" font-size="30" fill="#294270">5</tspan>
    </text>
    <text transform="matrix(1, 0, 0, 1, 164.728, 222.362)">
      <tspan x="-8.606" y="11" font-family="Roboto-Bold" font-size="30" fill="#294270">6</tspan>
    </text>
    <text transform="matrix(1, 0, 0, 1, 161, 175.886)">
      <tspan x="-8.606" y="11" font-family="Roboto-Bold" font-size="30" fill="#294270">7</tspan>
    </text>
    <text transform="matrix(1, 0, 0, 1, 161, 129.5)">
      <tspan x="-8.606" y="11" font-family="Roboto-Bold" font-size="30" fill="#294270">8</tspan>
    </text>
    <text transform="matrix(1, 0, 0, 1, 239, 129.5)">
      <tspan x="-17.212" y="11" font-family="Roboto-Bold" font-size="30" fill="#294270">10</tspan>
    </text>
    <text transform="matrix(1, 0, 0, 1, 278.6, 153.524)">
      <tspan x="-17.212" y="11" font-family="Roboto-Bold" font-size="30" fill="#294270">11</tspan>
    </text>
    <g>
      <path d="M133.543,253.018 L200.5,292.576 L266.817,253.061" fill-opacity="0" stroke="#F0801A" stroke-width="3"/>
      <path d="M135.679,249.402 L123.9,247.321 L131.406,256.634 z" fill="#F0801A" fill-opacity="1" stroke="#F0801A" stroke-width="3" stroke-opacity="1"/>
      <path d="M268.967,256.669 L276.438,247.328 L264.667,249.453 z" fill="#F0801A" fill-opacity="1" stroke="#F0801A" stroke-width="3" stroke-opacity="1"/>
    </g>
    <text transform="matrix(1, 0, 0, 1, 278.6, 200)">
      <tspan x="-17.212" y="11" font-family="Roboto-Bold" font-size="30" fill="#294270">12</tspan>
    </text>
    <text transform="matrix(1, 0, 0, 1, 278.6, 246.5)">
      <tspan x="-17.212" y="11" font-family="Roboto-Bold" font-size="30" fill="#294270">13</tspan>
    </text>
    <text transform="matrix(1, 0, 0, 1, 239, 268.838)">
      <tspan x="-17.212" y="11" font-family="Roboto-Bold" font-size="30" fill="#294270">14</tspan>
    </text>
    <text transform="matrix(1, 0, 0, 1, 200.167, 292.952)">
      <tspan x="-17.212" y="11" font-family="Roboto-Bold" font-size="30" fill="#294270">15</tspan>
    </text>
    <text transform="matrix(1, 0, 0, 1, 161, 268.838)">
      <tspan x="-17.212" y="11" font-family="Roboto-Bold" font-size="30" fill="#294270">16</tspan>
    </text>
    <text transform="matrix(1, 0, 0, 1, 121.4, 246.5)">
      <tspan x="-17.212" y="11" font-family="Roboto-Bold" font-size="30" fill="#294270">17</tspan>
    </text>
    <text transform="matrix(1, 0, 0, 1, 121.4, 200)">
      <tspan x="-17.212" y="11" font-family="Roboto-Bold" font-size="30" fill="#294270">18</tspan>
    </text>
    <text transform="matrix(1, 0, 0, 1, 121.4, 153.524)">
      <tspan x="-17.212" y="11" font-family="Roboto-Bold" font-size="30" fill="#294270">19</tspan>
    </text>
    <text transform="matrix(1, 0, 0, 1, 121.4, 107.048)">
      <tspan x="-17.212" y="11" font-family="Roboto-Bold" font-size="30" fill="#294270">20</tspan>
    </text>
    <g>
      <path d="M200.579,182.787 L200.921,123.6" fill-opacity="0" stroke="#F0801A" stroke-width="3"/>
      <path d="M196.379,182.762 L200.514,193.986 L204.779,182.811 z" fill="#F0801A" fill-opacity="1" stroke="#F0801A" stroke-width="3" stroke-opacity="1"/>
      <path d="M205.121,123.624 L200.986,112.4 L196.721,123.575 z" fill="#F0801A" fill-opacity="1" stroke="#F0801A" stroke-width="3" stroke-opacity="1"/>
    </g>
    <text transform="matrix(1, 0, 0, 1, 200.167, 200)">
      <tspan x="-8.606" y="11" font-family="Roboto-Bold" font-size="30" fill="#294270">1</tspan>
    </text>
    <text transform="matrix(1, 0, 0, 1, 200.167, 153.524)">
      <tspan x="-8.606" y="11" font-family="Roboto-Bold" font-size="30" fill="#294270">2</tspan>
    </text>
    <text transform="matrix(1, 0, 0, 1, 200.167, 107.048)">
      <tspan x="-8.606" y="11" font-family="Roboto-Bold" font-size="30" fill="#294270">9</tspan>
    </text>
  </g>
</svg>
