<?xml version="1.0" encoding="utf-8"?>
<!-- Generator: Adobe Illustrator 18.0.0, SVG Export Plug-In . SVG Version: 6.00 Build 0)  -->
<!DOCTYPE svg PUBLIC "-//W3C//DTD SVG 1.1//EN" "http://www.w3.org/Graphics/SVG/1.1/DTD/svg11.dtd">
<svg version="1.1" id="Layer_1" xmlns="http://www.w3.org/2000/svg" xmlns:xlink="http://www.w3.org/1999/xlink" x="0px" y="0px"
	 viewBox="0 0 600 600" enable-background="new 0 0 600 600" xml:space="preserve">
<rect x="50" y="50" fill="#EBEDED" stroke="#294270" stroke-width="2" stroke-miterlimit="10" width="50" height="50"/>
<rect x="100" y="50" fill="#66CC66" stroke="#294270" stroke-width="2" stroke-miterlimit="10" width="50" height="50"/>
<rect x="150" y="50" fill="#66CC66" stroke="#294270" stroke-width="2" stroke-miterlimit="10" width="50" height="50"/>
<rect x="200" y="50" fill="#66CC66" stroke="#294270" stroke-width="2" stroke-miterlimit="10" width="50" height="50"/>
<rect x="250" y="50" fill="#66CC66" stroke="#294270" stroke-width="2" stroke-miterlimit="10" width="50" height="50"/>
<rect x="300" y="50" fill="#66CC66" stroke="#294270" stroke-width="2" stroke-miterlimit="10" width="50" height="50"/>
<rect x="350" y="50" fill="#EBEDED" stroke="#294270" stroke-width="2" stroke-miterlimit="10" width="50" height="50"/>
<rect x="400" y="50" fill="#EBEDED" stroke="#294270" stroke-width="2" stroke-miterlimit="10" width="50" height="50"/>
<rect x="450" y="50" fill="#EBEDED" stroke="#294270" stroke-width="2" stroke-miterlimit="10" width="50" height="50"/>
<rect x="500" y="50" fill="#EBEDED" stroke="#294270" stroke-width="2" stroke-miterlimit="10" width="50" height="50"/>
<rect x="50" y="100" fill="#EBEDED" stroke="#294270" stroke-width="2" stroke-miterlimit="10" width="50" height="50"/>
<rect x="100" y="100" fill="#66CC66" stroke="#294270" stroke-width="2" stroke-miterlimit="10" width="50" height="50"/>
<rect x="150" y="100" fill="#737370" stroke="#294270" stroke-width="2" stroke-miterlimit="10" width="50" height="50"/>
<rect x="200" y="100" fill="#EBEDED" stroke="#294270" stroke-width="2" stroke-miterlimit="10" width="50" height="50"/>
<rect x="250" y="100" fill="#EBEDED" stroke="#294270" stroke-width="2" stroke-miterlimit="10" width="50" height="50"/>
<rect x="300" y="100" fill="#66CC66" stroke="#294270" stroke-width="2" stroke-miterlimit="10" width="50" height="50"/>
<rect x="350" y="100" fill="#EBEDED" stroke="#294270" stroke-width="2" stroke-miterlimit="10" width="50" height="50"/>
<rect x="400" y="100" fill="#EBEDED" stroke="#294270" stroke-width="2" stroke-miterlimit="10" width="50" height="50"/>
<rect x="450" y="100" fill="#EBEDED" stroke="#294270" stroke-width="2" stroke-miterlimit="10" width="50" height="50"/>
<rect x="500" y="100" fill="#EBEDED" stroke="#294270" stroke-width="2" stroke-miterlimit="10" width="50" height="50"/>
<rect x="50" y="150" fill="#FF6666" stroke="#294270" stroke-width="2" stroke-miterlimit="10" width="50" height="50"/>
<rect x="100" y="150" fill="#FF6666" stroke="#294270" stroke-width="2" stroke-miterlimit="10" width="50" height="50"/>
<rect x="150" y="150" fill="#737370" stroke="#294270" stroke-width="2" stroke-miterlimit="10" width="50" height="50"/>
<rect x="200" y="150" fill="#EBEDED" stroke="#294270" stroke-width="2" stroke-miterlimit="10" width="50" height="50"/>
<rect x="250" y="150" fill="#737370" stroke="#294270" stroke-width="2" stroke-miterlimit="10" width="50" height="50"/>
<rect x="300" y="150" fill="#66CC66" stroke="#294270" stroke-width="2" stroke-miterlimit="10" width="50" height="50"/>
<rect x="350" y="150" fill="#EBEDED" stroke="#294270" stroke-width="2" stroke-miterlimit="10" width="50" height="50"/>
<rect x="400" y="150" fill="#EBEDED" stroke="#294270" stroke-width="2" stroke-miterlimit="10" width="50" height="50"/>
<rect x="450" y="150" fill="#EBEDED" stroke="#294270" stroke-width="2" stroke-miterlimit="10" width="50" height="50"/>
<rect x="500" y="150" fill="#EBEDED" stroke="#294270" stroke-width="2" stroke-miterlimit="10" width="50" height="50"/>
<rect x="50" y="200" fill="#FF6666" stroke="#294270" stroke-width="2" stroke-miterlimit="10" width="50" height="50"/>
<rect x="100" y="200" fill="#737370" stroke="#294270" stroke-width="2" stroke-miterlimit="10" width="50" height="50"/>
<rect x="150" y="200" fill="#737370" stroke="#294270" stroke-width="2" stroke-miterlimit="10" width="50" height="50"/>
<rect x="200" y="200" fill="#737370" stroke="#294270" stroke-width="2" stroke-miterlimit="10" width="50" height="50"/>
<rect x="250" y="200" fill="#66CC66" stroke="#294270" stroke-width="2" stroke-miterlimit="10" width="50" height="50"/>
<rect x="300" y="200" fill="#66CC66" stroke="#294270" stroke-width="2" stroke-miterlimit="10" width="50" height="50"/>
<rect x="350" y="200" fill="#EBEDED" stroke="#294270" stroke-width="2" stroke-miterlimit="10" width="50" height="50"/>
<rect x="400" y="200" fill="#EBEDED" stroke="#294270" stroke-width="2" stroke-miterlimit="10" width="50" height="50"/>
<rect x="450" y="200" fill="#EBEDED" stroke="#294270" stroke-width="2" stroke-miterlimit="10" width="50" height="50"/>
<rect x="500" y="200" fill="#EBEDED" stroke="#294270" stroke-width="2" stroke-miterlimit="10" width="50" height="50"/>
<rect x="50" y="250" fill="#FF6666" stroke="#294270" stroke-width="2" stroke-miterlimit="10" width="50" height="50"/>
<rect x="100" y="250" fill="#737370" stroke="#294270" stroke-width="2" stroke-miterlimit="10" width="50" height="50"/>
<rect x="150" y="250" fill="#FABA00" stroke="#294270" stroke-width="2" stroke-miterlimit="10" width="50" height="50"/>
<rect x="200" y="250" fill="#FABA00" stroke="#294270" stroke-width="2" stroke-miterlimit="10" width="50" height="50"/>
<rect x="250" y="250" fill="#EBEDED" stroke="#294270" stroke-width="2" stroke-miterlimit="10" width="50" height="50"/>
<rect x="300" y="250" fill="#8FC7ED" stroke="#294270" stroke-width="2" stroke-miterlimit="10" width="50" height="50"/>
<rect x="350" y="250" fill="#8FC7ED" stroke="#294270" stroke-width="2" stroke-miterlimit="10" width="50" height="50"/>
<rect x="400" y="250" fill="#8FC7ED" stroke="#294270" stroke-width="2" stroke-miterlimit="10" width="50" height="50"/>
<rect x="450" y="250" fill="#8FC7ED" stroke="#294270" stroke-width="2" stroke-miterlimit="10" width="50" height="50"/>
<rect x="500" y="250" fill="#EBEDED" stroke="#294270" stroke-width="2" stroke-miterlimit="10" width="50" height="50"/>
<rect x="50" y="300" fill="#FF6666" stroke="#294270" stroke-width="2" stroke-miterlimit="10" width="50" height="50"/>
<rect x="100" y="300" fill="#737370" stroke="#294270" stroke-width="2" stroke-miterlimit="10" width="50" height="50"/>
<rect x="150" y="300" fill="#FABA00" stroke="#294270" stroke-width="2" stroke-miterlimit="10" width="50" height="50"/>
<rect x="200" y="300" fill="#FF6666" stroke="#294270" stroke-width="2" stroke-miterlimit="10" width="50" height="50"/>
<rect x="250" y="300" fill="#FF6666" stroke="#294270" stroke-width="2" stroke-miterlimit="10" width="50" height="50"/>
<rect x="300" y="300" fill="#EBEDED" stroke="#294270" stroke-width="2" stroke-miterlimit="10" width="50" height="50"/>
<rect x="350" y="300" fill="#EBEDED" stroke="#294270" stroke-width="2" stroke-miterlimit="10" width="50" height="50"/>
<rect x="400" y="300" fill="#EBEDED" stroke="#294270" stroke-width="2" stroke-miterlimit="10" width="50" height="50"/>
<rect x="450" y="300" fill="#8FC7ED" stroke="#294270" stroke-width="2" stroke-miterlimit="10" width="50" height="50"/>
<rect x="500" y="300" fill="#EBEDED" stroke="#294270" stroke-width="2" stroke-miterlimit="10" width="50" height="50"/>
<rect x="50" y="350" fill="#FF6666" stroke="#294270" stroke-width="2" stroke-miterlimit="10" width="50" height="50"/>
<rect x="100" y="350" fill="#737370" stroke="#294270" stroke-width="2" stroke-miterlimit="10" width="50" height="50"/>
<rect x="150" y="350" fill="#FABA00" stroke="#294270" stroke-width="2" stroke-miterlimit="10" width="50" height="50"/>
<rect x="200" y="350" fill="#FF6666" stroke="#294270" stroke-width="2" stroke-miterlimit="10" width="50" height="50"/>
<rect x="250" y="350" fill="#737370" stroke="#294270" stroke-width="2" stroke-miterlimit="10" width="50" height="50"/>
<rect x="300" y="350" fill="#EBEDED" stroke="#294270" stroke-width="2" stroke-miterlimit="10" width="50" height="50"/>
<rect x="350" y="350" fill="#EBEDED" stroke="#294270" stroke-width="2" stroke-miterlimit="10" width="50" height="50"/>
<rect x="400" y="350" fill="#EBEDED" stroke="#294270" stroke-width="2" stroke-miterlimit="10" width="50" height="50"/>
<rect x="450" y="350" fill="#8FC7ED" stroke="#294270" stroke-width="2" stroke-miterlimit="10" width="50" height="50"/>
<rect x="500" y="350" fill="#EBEDED" stroke="#294270" stroke-width="2" stroke-miterlimit="10" width="50" height="50"/>
<rect x="50" y="400" fill="#FF6666" stroke="#294270" stroke-width="2" stroke-miterlimit="10" width="50" height="50"/>
<rect x="100" y="400" fill="#737370" stroke="#294270" stroke-width="2" stroke-miterlimit="10" width="50" height="50"/>
<rect x="150" y="400" fill="#FABA00" stroke="#294270" stroke-width="2" stroke-miterlimit="10" width="50" height="50"/>
<rect x="200" y="400" fill="#FF6666" stroke="#294270" stroke-width="2" stroke-miterlimit="10" width="50" height="50"/>
<rect x="250" y="400" fill="#737370" stroke="#294270" stroke-width="2" stroke-miterlimit="10" width="50" height="50"/>
<rect x="300" y="400" fill="#EBEDED" stroke="#294270" stroke-width="2" stroke-miterlimit="10" width="50" height="50"/>
<rect x="350" y="400" fill="#EBEDED" stroke="#294270" stroke-width="2" stroke-miterlimit="10" width="50" height="50"/>
<rect x="400" y="400" fill="#EBEDED" stroke="#294270" stroke-width="2" stroke-miterlimit="10" width="50" height="50"/>
<rect x="450" y="400" fill="#8FC7ED" stroke="#294270" stroke-width="2" stroke-miterlimit="10" width="50" height="50"/>
<rect x="500" y="400" fill="#EBEDED" stroke="#294270" stroke-width="2" stroke-miterlimit="10" width="50" height="50"/>
<rect x="50" y="450" fill="#FF6666" stroke="#294270" stroke-width="2" stroke-miterlimit="10" width="50" height="50"/>
<rect x="100" y="450" fill="#EBEDED" stroke="#294270" stroke-width="2" stroke-miterlimit="10" width="50" height="50"/>
<rect x="150" y="450" fill="#FABA00" stroke="#294270" stroke-width="2" stroke-miterlimit="10" width="50" height="50"/>
<rect x="200" y="450" fill="#FF6666" stroke="#294270" stroke-width="2" stroke-miterlimit="10" width="50" height="50"/>
<rect x="250" y="450" fill="#737370" stroke="#294270" stroke-width="2" stroke-miterlimit="10" width="50" height="50"/>
<rect x="300" y="450" fill="#EBEDED" stroke="#294270" stroke-width="2" stroke-miterlimit="10" width="50" height="50"/>
<rect x="350" y="450" fill="#EBEDED" stroke="#294270" stroke-width="2" stroke-miterlimit="10" width="50" height="50"/>
<rect x="400" y="450" fill="#EBEDED" stroke="#294270" stroke-width="2" stroke-miterlimit="10" width="50" height="50"/>
<rect x="450" y="450" fill="#8FC7ED" stroke="#294270" stroke-width="2" stroke-miterlimit="10" width="50" height="50"/>
<rect x="500" y="450" fill="#EBEDED" stroke="#294270" stroke-width="2" stroke-miterlimit="10" width="50" height="50"/>
<rect x="50" y="500" fill="#FF6666" stroke="#294270" stroke-width="2" stroke-miterlimit="10" width="50" height="50"/>
<rect x="100" y="500" fill="#FF6666" stroke="#294270" stroke-width="2" stroke-miterlimit="10" width="50" height="50"/>
<rect x="150" y="500" fill="#FF6666" stroke="#294270" stroke-width="2" stroke-miterlimit="10" width="50" height="50"/>
<rect x="200" y="500" fill="#FF6666" stroke="#294270" stroke-width="2" stroke-miterlimit="10" width="50" height="50"/>
<rect x="250" y="500" fill="#737370" stroke="#294270" stroke-width="2" stroke-miterlimit="10" width="50" height="50"/>
<rect x="300" y="500" fill="#EBEDED" stroke="#294270" stroke-width="2" stroke-miterlimit="10" width="50" height="50"/>
<rect x="350" y="500" fill="#EBEDED" stroke="#294270" stroke-width="2" stroke-miterlimit="10" width="50" height="50"/>
<rect x="400" y="500" fill="#EBEDED" stroke="#294270" stroke-width="2" stroke-miterlimit="10" width="50" height="50"/>
<rect x="450" y="500" fill="#EBEDED" stroke="#294270" stroke-width="2" stroke-miterlimit="10" width="50" height="50"/>
<rect x="500" y="500" fill="#EBEDED" stroke="#294270" stroke-width="2" stroke-miterlimit="10" width="50" height="50"/>
<line fill="none" stroke="#294270" stroke-width="2" stroke-miterlimit="10" x1="250" y1="300" x2="300" y2="250"/>
<line fill="none" stroke="#294270" stroke-width="2" stroke-miterlimit="10" x1="250" y1="250" x2="300" y2="300"/>
<text transform="matrix(1 0 0 1 111.2305 140)" fill="#294270" font-family="'Roboto-Bold'" font-size="48">1</text>
<text transform="matrix(1 0 0 1 461.2305 495)" fill="#294270" font-family="'Roboto-Bold'" font-size="48">4</text>
<text transform="matrix(1 0 0 1 161.2305 495)" fill="#294270" font-family="'Roboto-Bold'" font-size="48">3</text>
<text transform="matrix(1 0 0 1 111.2305 195)" fill="#294270" font-family="'Roboto-Bold'" font-size="48">2</text>
<polygon fill="#66CC66" stroke="#294270" stroke-width="2" stroke-miterlimit="10" points="301,250 301,250 250,250 275,275 "/>
<polygon fill="#8FC7ED" stroke="#294270" stroke-width="2" stroke-miterlimit="10" points="300,301 300,301 300,250 275,275 "/>
<polygon fill="#FF6666" stroke="#294270" stroke-width="2" stroke-miterlimit="10" points="249,300 249,300 300,300 275,275 "/>
<polygon fill="#FABA00" stroke="#294270" stroke-width="2" stroke-miterlimit="10" points="250,249 250,249 250,300 275,275 "/>
<rect x="250" y="250" fill="none" stroke="#294270" stroke-width="6" stroke-miterlimit="10" width="50" height="50"/>
</svg>
